<?xml version="1.0" encoding="utf-8" standalone="no"?>
<!DOCTYPE svg PUBLIC "-//W3C//DTD SVG 1.1//EN"
  "http://www.w3.org/Graphics/SVG/1.1/DTD/svg11.dtd">
<svg xmlns:xlink="http://www.w3.org/1999/xlink" width="1105.92pt" height="543.168pt" viewBox="0 0 1105.92 543.168" xmlns="http://www.w3.org/2000/svg" version="1.1">
 <metadata>
  <rdf:RDF xmlns:dc="http://purl.org/dc/elements/1.1/" xmlns:cc="http://creativecommons.org/ns#" xmlns:rdf="http://www.w3.org/1999/02/22-rdf-syntax-ns#">
   <cc:Work>
    <dc:type rdf:resource="http://purl.org/dc/dcmitype/StillImage"/>
    <dc:date>2025-04-24T09:59:50.094661</dc:date>
    <dc:format>image/svg+xml</dc:format>
    <dc:creator>
     <cc:Agent>
      <dc:title>Matplotlib v3.10.1, https://matplotlib.org/</dc:title>
     </cc:Agent>
    </dc:creator>
   </cc:Work>
  </rdf:RDF>
 </metadata>
 <defs>
  <style type="text/css">*{stroke-linejoin: round; stroke-linecap: butt}</style>
 </defs>
 <g id="figure_1">
  <g id="patch_1">
   <path d="M 0 543.168 
L 1105.92 543.168 
L 1105.92 0 
L 0 0 
z
" style="fill: #ffffff"/>
  </g>
  <g id="axes_1">
   <g id="patch_2">
    <path d="M 138.24 483.41952 
L 995.328 483.41952 
L 995.328 65.18016 
L 138.24 65.18016 
z
" style="fill: #ffffff"/>
   </g>
   <g id="matplotlib.axis_1">
    <g id="xtick_1">
     <g id="line2d_1">
      <defs>
       <path id="m1deec3e223" d="M 0 0 
L 0 3.5 
" style="stroke: #000000; stroke-width: 0.8"/>
      </defs>
      <g>
       <use xlink:href="#m1deec3e223" x="248.682115" y="483.41952" style="stroke: #000000; stroke-width: 0.8"/>
      </g>
     </g>
     <g id="text_1">
      <!-- 1 -->
      <g transform="translate(245.500865 498.017958) scale(0.1 -0.1)">
       <defs>
        <path id="DejaVuSans-31" d="M 794 531 
L 1825 531 
L 1825 4091 
L 703 3866 
L 703 4441 
L 1819 4666 
L 2450 4666 
L 2450 531 
L 3481 531 
L 3481 0 
L 794 0 
L 794 531 
z
" transform="scale(0.015625)"/>
       </defs>
       <use xlink:href="#DejaVuSans-31"/>
      </g>
     </g>
    </g>
    <g id="xtick_2">
     <g id="line2d_2">
      <g>
       <use xlink:href="#m1deec3e223" x="391.649254" y="483.41952" style="stroke: #000000; stroke-width: 0.8"/>
      </g>
     </g>
     <g id="text_2">
      <!-- 2 -->
      <g transform="translate(388.468004 498.017958) scale(0.1 -0.1)">
       <defs>
        <path id="DejaVuSans-32" d="M 1228 531 
L 3431 531 
L 3431 0 
L 469 0 
L 469 531 
Q 828 903 1448 1529 
Q 2069 2156 2228 2338 
Q 2531 2678 2651 2914 
Q 2772 3150 2772 3378 
Q 2772 3750 2511 3984 
Q 2250 4219 1831 4219 
Q 1534 4219 1204 4116 
Q 875 4013 500 3803 
L 500 4441 
Q 881 4594 1212 4672 
Q 1544 4750 1819 4750 
Q 2544 4750 2975 4387 
Q 3406 4025 3406 3419 
Q 3406 3131 3298 2873 
Q 3191 2616 2906 2266 
Q 2828 2175 2409 1742 
Q 1991 1309 1228 531 
z
" transform="scale(0.015625)"/>
       </defs>
       <use xlink:href="#DejaVuSans-32"/>
      </g>
     </g>
    </g>
    <g id="xtick_3">
     <g id="line2d_3">
      <g>
       <use xlink:href="#m1deec3e223" x="534.616394" y="483.41952" style="stroke: #000000; stroke-width: 0.8"/>
      </g>
     </g>
     <g id="text_3">
      <!-- 3 -->
      <g transform="translate(531.435144 498.017958) scale(0.1 -0.1)">
       <defs>
        <path id="DejaVuSans-33" d="M 2597 2516 
Q 3050 2419 3304 2112 
Q 3559 1806 3559 1356 
Q 3559 666 3084 287 
Q 2609 -91 1734 -91 
Q 1441 -91 1130 -33 
Q 819 25 488 141 
L 488 750 
Q 750 597 1062 519 
Q 1375 441 1716 441 
Q 2309 441 2620 675 
Q 2931 909 2931 1356 
Q 2931 1769 2642 2001 
Q 2353 2234 1838 2234 
L 1294 2234 
L 1294 2753 
L 1863 2753 
Q 2328 2753 2575 2939 
Q 2822 3125 2822 3475 
Q 2822 3834 2567 4026 
Q 2313 4219 1838 4219 
Q 1578 4219 1281 4162 
Q 984 4106 628 3988 
L 628 4550 
Q 988 4650 1302 4700 
Q 1616 4750 1894 4750 
Q 2613 4750 3031 4423 
Q 3450 4097 3450 3541 
Q 3450 3153 3228 2886 
Q 3006 2619 2597 2516 
z
" transform="scale(0.015625)"/>
       </defs>
       <use xlink:href="#DejaVuSans-33"/>
      </g>
     </g>
    </g>
    <g id="xtick_4">
     <g id="line2d_4">
      <g>
       <use xlink:href="#m1deec3e223" x="677.583533" y="483.41952" style="stroke: #000000; stroke-width: 0.8"/>
      </g>
     </g>
     <g id="text_4">
      <!-- 4 -->
      <g transform="translate(674.402283 498.017958) scale(0.1 -0.1)">
       <defs>
        <path id="DejaVuSans-34" d="M 2419 4116 
L 825 1625 
L 2419 1625 
L 2419 4116 
z
M 2253 4666 
L 3047 4666 
L 3047 1625 
L 3713 1625 
L 3713 1100 
L 3047 1100 
L 3047 0 
L 2419 0 
L 2419 1100 
L 313 1100 
L 313 1709 
L 2253 4666 
z
" transform="scale(0.015625)"/>
       </defs>
       <use xlink:href="#DejaVuSans-34"/>
      </g>
     </g>
    </g>
    <g id="xtick_5">
     <g id="line2d_5">
      <g>
       <use xlink:href="#m1deec3e223" x="820.550672" y="483.41952" style="stroke: #000000; stroke-width: 0.8"/>
      </g>
     </g>
     <g id="text_5">
      <!-- 5 -->
      <g transform="translate(817.369422 498.017958) scale(0.1 -0.1)">
       <defs>
        <path id="DejaVuSans-35" d="M 691 4666 
L 3169 4666 
L 3169 4134 
L 1269 4134 
L 1269 2991 
Q 1406 3038 1543 3061 
Q 1681 3084 1819 3084 
Q 2600 3084 3056 2656 
Q 3513 2228 3513 1497 
Q 3513 744 3044 326 
Q 2575 -91 1722 -91 
Q 1428 -91 1123 -41 
Q 819 9 494 109 
L 494 744 
Q 775 591 1075 516 
Q 1375 441 1709 441 
Q 2250 441 2565 725 
Q 2881 1009 2881 1497 
Q 2881 1984 2565 2268 
Q 2250 2553 1709 2553 
Q 1456 2553 1204 2497 
Q 953 2441 691 2322 
L 691 4666 
z
" transform="scale(0.015625)"/>
       </defs>
       <use xlink:href="#DejaVuSans-35"/>
      </g>
     </g>
    </g>
    <g id="xtick_6">
     <g id="line2d_6">
      <g>
       <use xlink:href="#m1deec3e223" x="963.517812" y="483.41952" style="stroke: #000000; stroke-width: 0.8"/>
      </g>
     </g>
     <g id="text_6">
      <!-- 6 -->
      <g transform="translate(960.336562 498.017958) scale(0.1 -0.1)">
       <defs>
        <path id="DejaVuSans-36" d="M 2113 2584 
Q 1688 2584 1439 2293 
Q 1191 2003 1191 1497 
Q 1191 994 1439 701 
Q 1688 409 2113 409 
Q 2538 409 2786 701 
Q 3034 994 3034 1497 
Q 3034 2003 2786 2293 
Q 2538 2584 2113 2584 
z
M 3366 4563 
L 3366 3988 
Q 3128 4100 2886 4159 
Q 2644 4219 2406 4219 
Q 1781 4219 1451 3797 
Q 1122 3375 1075 2522 
Q 1259 2794 1537 2939 
Q 1816 3084 2150 3084 
Q 2853 3084 3261 2657 
Q 3669 2231 3669 1497 
Q 3669 778 3244 343 
Q 2819 -91 2113 -91 
Q 1303 -91 875 529 
Q 447 1150 447 2328 
Q 447 3434 972 4092 
Q 1497 4750 2381 4750 
Q 2619 4750 2861 4703 
Q 3103 4656 3366 4563 
z
" transform="scale(0.015625)"/>
       </defs>
       <use xlink:href="#DejaVuSans-36"/>
      </g>
     </g>
    </g>
   </g>
   <g id="matplotlib.axis_2">
    <g id="ytick_1">
     <g id="line2d_7">
      <defs>
       <path id="mbb880e900e" d="M 0 0 
L -3.5 0 
" style="stroke: #000000; stroke-width: 0.8"/>
      </defs>
      <g>
       <use xlink:href="#mbb880e900e" x="138.24" y="465.467742" style="stroke: #000000; stroke-width: 0.8"/>
      </g>
     </g>
     <g id="text_7">
      <!-- 0.0 -->
      <g transform="translate(115.336875 469.266961) scale(0.1 -0.1)">
       <defs>
        <path id="DejaVuSans-30" d="M 2034 4250 
Q 1547 4250 1301 3770 
Q 1056 3291 1056 2328 
Q 1056 1369 1301 889 
Q 1547 409 2034 409 
Q 2525 409 2770 889 
Q 3016 1369 3016 2328 
Q 3016 3291 2770 3770 
Q 2525 4250 2034 4250 
z
M 2034 4750 
Q 2819 4750 3233 4129 
Q 3647 3509 3647 2328 
Q 3647 1150 3233 529 
Q 2819 -91 2034 -91 
Q 1250 -91 836 529 
Q 422 1150 422 2328 
Q 422 3509 836 4129 
Q 1250 4750 2034 4750 
z
" transform="scale(0.015625)"/>
        <path id="DejaVuSans-2e" d="M 684 794 
L 1344 794 
L 1344 0 
L 684 0 
L 684 794 
z
" transform="scale(0.015625)"/>
       </defs>
       <use xlink:href="#DejaVuSans-30"/>
       <use xlink:href="#DejaVuSans-2e" transform="translate(63.623047 0)"/>
       <use xlink:href="#DejaVuSans-30" transform="translate(95.410156 0)"/>
      </g>
     </g>
    </g>
    <g id="ytick_2">
     <g id="line2d_8">
      <g>
       <use xlink:href="#mbb880e900e" x="138.24" y="412.512644" style="stroke: #000000; stroke-width: 0.8"/>
      </g>
     </g>
     <g id="text_8">
      <!-- 2.5 -->
      <g transform="translate(115.336875 416.311863) scale(0.1 -0.1)">
       <use xlink:href="#DejaVuSans-32"/>
       <use xlink:href="#DejaVuSans-2e" transform="translate(63.623047 0)"/>
       <use xlink:href="#DejaVuSans-35" transform="translate(95.410156 0)"/>
      </g>
     </g>
    </g>
    <g id="ytick_3">
     <g id="line2d_9">
      <g>
       <use xlink:href="#mbb880e900e" x="138.24" y="359.557547" style="stroke: #000000; stroke-width: 0.8"/>
      </g>
     </g>
     <g id="text_9">
      <!-- 5.0 -->
      <g transform="translate(115.336875 363.356766) scale(0.1 -0.1)">
       <use xlink:href="#DejaVuSans-35"/>
       <use xlink:href="#DejaVuSans-2e" transform="translate(63.623047 0)"/>
       <use xlink:href="#DejaVuSans-30" transform="translate(95.410156 0)"/>
      </g>
     </g>
    </g>
    <g id="ytick_4">
     <g id="line2d_10">
      <g>
       <use xlink:href="#mbb880e900e" x="138.24" y="306.602449" style="stroke: #000000; stroke-width: 0.8"/>
      </g>
     </g>
     <g id="text_10">
      <!-- 7.5 -->
      <g transform="translate(115.336875 310.401668) scale(0.1 -0.1)">
       <defs>
        <path id="DejaVuSans-37" d="M 525 4666 
L 3525 4666 
L 3525 4397 
L 1831 0 
L 1172 0 
L 2766 4134 
L 525 4134 
L 525 4666 
z
" transform="scale(0.015625)"/>
       </defs>
       <use xlink:href="#DejaVuSans-37"/>
       <use xlink:href="#DejaVuSans-2e" transform="translate(63.623047 0)"/>
       <use xlink:href="#DejaVuSans-35" transform="translate(95.410156 0)"/>
      </g>
     </g>
    </g>
    <g id="ytick_5">
     <g id="line2d_11">
      <g>
       <use xlink:href="#mbb880e900e" x="138.24" y="253.647352" style="stroke: #000000; stroke-width: 0.8"/>
      </g>
     </g>
     <g id="text_11">
      <!-- 10.0 -->
      <g transform="translate(108.974375 257.446571) scale(0.1 -0.1)">
       <use xlink:href="#DejaVuSans-31"/>
       <use xlink:href="#DejaVuSans-30" transform="translate(63.623047 0)"/>
       <use xlink:href="#DejaVuSans-2e" transform="translate(127.246094 0)"/>
       <use xlink:href="#DejaVuSans-30" transform="translate(159.033203 0)"/>
      </g>
     </g>
    </g>
    <g id="ytick_6">
     <g id="line2d_12">
      <g>
       <use xlink:href="#mbb880e900e" x="138.24" y="200.692254" style="stroke: #000000; stroke-width: 0.8"/>
      </g>
     </g>
     <g id="text_12">
      <!-- 12.5 -->
      <g transform="translate(108.974375 204.491473) scale(0.1 -0.1)">
       <use xlink:href="#DejaVuSans-31"/>
       <use xlink:href="#DejaVuSans-32" transform="translate(63.623047 0)"/>
       <use xlink:href="#DejaVuSans-2e" transform="translate(127.246094 0)"/>
       <use xlink:href="#DejaVuSans-35" transform="translate(159.033203 0)"/>
      </g>
     </g>
    </g>
    <g id="ytick_7">
     <g id="line2d_13">
      <g>
       <use xlink:href="#mbb880e900e" x="138.24" y="147.737157" style="stroke: #000000; stroke-width: 0.8"/>
      </g>
     </g>
     <g id="text_13">
      <!-- 15.0 -->
      <g transform="translate(108.974375 151.536376) scale(0.1 -0.1)">
       <use xlink:href="#DejaVuSans-31"/>
       <use xlink:href="#DejaVuSans-35" transform="translate(63.623047 0)"/>
       <use xlink:href="#DejaVuSans-2e" transform="translate(127.246094 0)"/>
       <use xlink:href="#DejaVuSans-30" transform="translate(159.033203 0)"/>
      </g>
     </g>
    </g>
    <g id="ytick_8">
     <g id="line2d_14">
      <g>
       <use xlink:href="#mbb880e900e" x="138.24" y="94.782059" style="stroke: #000000; stroke-width: 0.8"/>
      </g>
     </g>
     <g id="text_14">
      <!-- 17.5 -->
      <g transform="translate(108.974375 98.581278) scale(0.1 -0.1)">
       <use xlink:href="#DejaVuSans-31"/>
       <use xlink:href="#DejaVuSans-37" transform="translate(63.623047 0)"/>
       <use xlink:href="#DejaVuSans-2e" transform="translate(127.246094 0)"/>
       <use xlink:href="#DejaVuSans-35" transform="translate(159.033203 0)"/>
      </g>
     </g>
    </g>
   </g>
   <g id="line2d_15">
    <path d="M 177.198545 348.966527 
L 184.346902 350.025629 
L 191.495259 351.084731 
L 198.643616 352.143833 
L 205.791973 353.202935 
L 212.94033 354.262037 
L 220.088687 355.321139 
L 227.237044 356.380241 
L 234.385401 357.439343 
L 241.533758 358.498445 
L 248.682115 359.557547 
L 255.830472 360.616649 
L 262.978829 361.675751 
L 270.127186 362.734853 
L 277.275543 363.793955 
L 284.4239 364.853057 
L 291.572257 365.912159 
L 298.720614 366.971261 
L 305.868971 368.030363 
L 313.017328 369.089465 
L 320.165685 370.148566 
L 327.314042 371.207668 
L 334.462399 372.26677 
L 341.610756 373.325872 
L 348.759113 374.384974 
L 355.90747 375.444076 
L 363.055827 376.503178 
L 370.204183 377.56228 
L 377.35254 378.621382 
L 384.500897 379.680484 
L 391.649254 380.739586 
L 398.797611 381.798688 
L 405.945968 382.85779 
L 413.094325 383.916892 
L 420.242682 384.975994 
L 427.391039 386.035096 
L 434.539396 387.094198 
L 441.687753 388.1533 
L 448.83611 389.212402 
L 455.984467 390.271504 
L 463.132824 391.330605 
L 470.281181 392.389707 
L 477.429538 393.448809 
L 484.577895 394.507911 
L 491.726252 395.567013 
L 498.874609 396.626115 
L 506.022966 397.685217 
L 513.171323 398.744319 
L 520.31968 399.803421 
L 527.468037 400.862523 
L 534.616394 401.921625 
L 541.764751 402.980727 
L 548.913108 404.039829 
L 556.061465 405.098931 
L 563.209822 406.158033 
L 570.358178 407.217135 
L 577.506535 408.276237 
L 584.654892 409.335339 
L 591.803249 410.394441 
L 598.951606 411.453543 
L 606.099963 412.512644 
L 613.24832 413.571746 
L 620.396677 414.630848 
L 627.545034 415.68995 
L 634.693391 416.749052 
L 641.841748 417.808154 
L 648.990105 418.867256 
L 656.138462 419.926358 
L 663.286819 420.98546 
L 670.435176 422.044562 
L 677.583533 423.103664 
L 684.73189 424.162766 
L 691.880247 425.221868 
L 699.028604 426.28097 
L 706.176961 427.340072 
L 713.325318 428.399174 
L 720.473675 429.458276 
L 727.622032 430.517378 
L 734.770389 431.57648 
L 741.918746 432.635582 
L 749.067103 433.694683 
L 756.21546 434.753785 
L 763.363817 435.812887 
L 770.512173 436.871989 
L 777.66053 437.931091 
L 784.808887 438.990193 
L 791.957244 440.049295 
L 799.105601 441.108397 
L 806.253958 442.167499 
L 813.402315 443.226601 
L 820.550672 444.285703 
L 827.699029 445.344805 
L 834.847386 446.403907 
L 841.995743 447.463009 
L 849.1441 448.522111 
L 856.292457 449.581213 
L 863.440814 450.640315 
L 870.589171 451.699417 
L 877.737528 452.758519 
L 884.885885 453.817621 
L 892.034242 454.876722 
L 899.182599 455.935824 
L 906.330956 456.994926 
L 913.479313 458.054028 
L 920.62767 459.11313 
L 927.776027 460.172232 
L 934.924384 461.231334 
L 942.072741 462.290436 
L 949.221098 463.349538 
L 956.369455 464.40864 
" clip-path="url(#p030a98003f)" style="fill: none; stroke: #1f77b4; stroke-width: 1.5; stroke-linecap: square"/>
   </g>
   <g id="line2d_16">
    <path d="M 177.198545 304.462629 
L 184.346902 308.468439 
L 191.495259 312.2488 
L 198.643616 315.83138 
L 205.791973 319.23861 
L 212.94033 322.488979 
L 220.088687 325.597938 
L 227.237044 328.578556 
L 234.385401 331.442006 
L 241.533758 334.197927 
L 248.682115 336.854706 
L 255.830472 339.419692 
L 262.978829 341.89937 
L 270.127186 344.299494 
L 277.275543 346.6252 
L 284.4239 348.881094 
L 291.572257 351.071324 
L 298.720614 353.199646 
L 305.868971 355.269468 
L 313.017328 357.283898 
L 320.165685 359.245776 
L 327.314042 361.157712 
L 334.462399 363.022101 
L 341.610756 364.841156 
L 348.759113 366.616924 
L 355.90747 368.3513 
L 363.055827 370.046046 
L 370.204183 371.702803 
L 377.35254 373.3231 
L 384.500897 374.908368 
L 391.649254 376.459945 
L 398.797611 377.979088 
L 405.945968 379.466976 
L 413.094325 380.924719 
L 420.242682 382.353362 
L 427.391039 383.753893 
L 434.539396 385.127243 
L 441.687753 386.474293 
L 448.83611 387.79588 
L 455.984467 389.092794 
L 463.132824 390.365788 
L 470.281181 391.615575 
L 477.429538 392.842834 
L 484.577895 394.048213 
L 491.726252 395.232328 
L 498.874609 396.395767 
L 506.022966 397.539091 
L 513.171323 398.662836 
L 520.31968 399.767517 
L 527.468037 400.853623 
L 534.616394 401.921625 
L 541.764751 402.971974 
L 548.913108 404.005102 
L 556.061465 405.021424 
L 563.209822 406.021339 
L 570.358178 407.00523 
L 577.506535 407.973464 
L 584.654892 408.926398 
L 591.803249 409.864371 
L 598.951606 410.787714 
L 606.099963 411.696742 
L 613.24832 412.591761 
L 620.396677 413.473067 
L 627.545034 414.340944 
L 634.693391 415.195667 
L 641.841748 416.037502 
L 648.990105 416.866706 
L 656.138462 417.683527 
L 663.286819 418.488206 
L 670.435176 419.280975 
L 677.583533 420.06206 
L 684.73189 420.831679 
L 691.880247 421.590045 
L 699.028604 422.337362 
L 706.176961 423.073829 
L 713.325318 423.799639 
L 720.473675 424.514981 
L 727.622032 425.220035 
L 734.770389 425.91498 
L 741.918746 426.599987 
L 749.067103 427.275222 
L 756.21546 427.940849 
L 763.363817 428.597024 
L 770.512173 429.243903 
L 777.66053 429.881634 
L 784.808887 430.510364 
L 791.957244 431.130233 
L 799.105601 431.74138 
L 806.253958 432.343939 
L 813.402315 432.938042 
L 820.550672 433.523816 
L 827.699029 434.101386 
L 834.847386 434.670874 
L 841.995743 435.232398 
L 849.1441 435.786074 
L 856.292457 436.332014 
L 863.440814 436.870329 
L 870.589171 437.401127 
L 877.737528 437.924513 
L 884.885885 438.440589 
L 892.034242 438.949456 
L 899.182599 439.451212 
L 906.330956 439.945953 
L 913.479313 440.433772 
L 920.62767 440.914762 
L 927.776027 441.389011 
L 934.924384 441.856608 
L 942.072741 442.317638 
L 949.221098 442.772186 
L 956.369455 443.220334 
" clip-path="url(#p030a98003f)" style="fill: none; stroke: #ff7f0e; stroke-width: 1.5; stroke-linecap: square"/>
   </g>
   <g id="line2d_17">
    <path d="M 177.198545 247.398638 
L 184.346902 257.106474 
L 191.495259 265.87711 
L 198.643616 273.860536 
L 205.791973 281.173801 
L 212.94033 287.909986 
L 220.088687 294.144317 
L 227.237044 299.938447 
L 234.385401 305.343521 
L 241.533758 310.40243 
L 248.682115 315.15149 
L 255.830472 319.621708 
L 262.978829 323.83977 
L 270.127186 327.828799 
L 277.275543 331.60896 
L 284.4239 335.19794 
L 291.572257 338.611333 
L 298.720614 341.86296 
L 305.868971 344.96512 
L 313.017328 347.928807 
L 320.165685 350.763887 
L 327.314042 353.479242 
L 334.462399 356.082899 
L 341.610756 358.582134 
L 348.759113 360.983562 
L 355.90747 363.293211 
L 363.055827 365.516593 
L 370.204183 367.658759 
L 377.35254 369.724345 
L 384.500897 371.717623 
L 391.649254 373.642528 
L 398.797611 375.5027 
L 405.945968 377.301509 
L 413.094325 379.042081 
L 420.242682 380.727321 
L 427.391039 382.359931 
L 434.539396 383.942432 
L 441.687753 385.477176 
L 448.83611 386.966363 
L 455.984467 388.412052 
L 463.132824 389.816173 
L 470.281181 391.180537 
L 477.429538 392.506847 
L 484.577895 393.796705 
L 491.726252 395.051618 
L 498.874609 396.273009 
L 506.022966 397.46222 
L 513.171323 398.620519 
L 520.31968 399.749106 
L 527.468037 400.849117 
L 534.616394 401.921625 
L 541.764751 402.967651 
L 548.913108 403.988164 
L 556.061465 404.984081 
L 563.209822 405.956278 
L 570.358178 406.905584 
L 577.506535 407.832792 
L 584.654892 408.738654 
L 591.803249 409.62389 
L 598.951606 410.489185 
L 606.099963 411.335192 
L 613.24832 412.162538 
L 620.396677 412.971818 
L 627.545034 413.763606 
L 634.693391 414.538446 
L 641.841748 415.296862 
L 648.990105 416.039355 
L 656.138462 416.766407 
L 663.286819 417.478477 
L 670.435176 418.176007 
L 677.583533 418.859423 
L 684.73189 419.52913 
L 691.880247 420.185522 
L 699.028604 420.828973 
L 706.176961 421.459847 
L 713.325318 422.078491 
L 720.473675 422.685241 
L 727.622032 423.280419 
L 734.770389 423.864336 
L 741.918746 424.437293 
L 749.067103 424.999577 
L 756.21546 425.551467 
L 763.363817 426.093233 
L 770.512173 426.625134 
L 777.66053 427.147419 
L 784.808887 427.660332 
L 791.957244 428.164106 
L 799.105601 428.658967 
L 806.253958 429.145133 
L 813.402315 429.622815 
L 820.550672 430.092219 
L 827.699029 430.553541 
L 834.847386 431.006974 
L 841.995743 431.452702 
L 849.1441 431.890906 
L 856.292457 432.321758 
L 863.440814 432.745429 
L 870.589171 433.16208 
L 877.737528 433.571872 
L 884.885885 433.974957 
L 892.034242 434.371484 
L 899.182599 434.761599 
L 906.330956 435.145441 
L 913.479313 435.523148 
L 920.62767 435.894852 
L 927.776027 436.26068 
L 934.924384 436.62076 
L 942.072741 436.975211 
L 949.221098 437.324151 
L 956.369455 437.667697 
" clip-path="url(#p030a98003f)" style="fill: none; stroke: #2ca02c; stroke-width: 1.5; stroke-linecap: square"/>
   </g>
   <g id="line2d_18">
    <path d="M 177.198545 175.21754 
L 184.346902 194.572744 
L 191.495259 211.367962 
L 198.643616 226.103483 
L 205.791973 239.153662 
L 212.94033 250.804863 
L 220.088687 261.280311 
L 227.237044 270.756878 
L 234.385401 279.376721 
L 241.533758 287.255546 
L 248.682115 294.488589 
L 255.830472 301.155026 
L 262.978829 307.321276 
L 270.127186 313.043515 
L 277.275543 318.369611 
L 284.4239 323.340623 
L 291.572257 327.991999 
L 298.720614 332.354509 
L 305.868971 336.455011 
L 313.017328 340.317059 
L 320.165685 343.961405 
L 327.314042 347.406411 
L 334.462399 350.668387 
L 341.610756 353.761875 
L 348.759113 356.699884 
L 355.90747 359.494094 
L 363.055827 362.155019 
L 370.204183 364.692155 
L 377.35254 367.114097 
L 384.500897 369.428652 
L 391.649254 371.642922 
L 398.797611 373.763386 
L 405.945968 375.795968 
L 413.094325 377.746094 
L 420.242682 379.618746 
L 427.391039 381.418505 
L 434.539396 383.149595 
L 441.687753 384.815911 
L 448.83611 386.421057 
L 455.984467 387.96837 
L 463.132824 389.460945 
L 470.281181 390.901658 
L 477.429538 392.293183 
L 484.577895 393.638011 
L 491.726252 394.938466 
L 498.874609 396.196718 
L 506.022966 397.414796 
L 513.171323 398.594599 
L 520.31968 399.737909 
L 527.468037 400.846395 
L 534.616394 401.921625 
L 541.764751 402.965075 
L 548.913108 403.978133 
L 556.061465 404.962106 
L 563.209822 405.918227 
L 570.358178 406.84766 
L 577.506535 407.751503 
L 584.654892 408.630796 
L 591.803249 409.486521 
L 598.951606 410.319609 
L 606.099963 411.130942 
L 613.24832 411.921356 
L 620.396677 412.691644 
L 627.545034 413.442561 
L 634.693391 414.174823 
L 641.841748 414.889111 
L 648.990105 415.586073 
L 656.138462 416.266326 
L 663.286819 416.930458 
L 670.435176 417.57903 
L 677.583533 418.212577 
L 684.73189 418.831608 
L 691.880247 419.436612 
L 699.028604 420.028054 
L 706.176961 420.606379 
L 713.325318 421.172012 
L 720.473675 421.725363 
L 727.622032 422.26682 
L 734.770389 422.796758 
L 741.918746 423.315534 
L 749.067103 423.823493 
L 756.21546 424.320964 
L 763.363817 424.808262 
L 770.512173 425.285692 
L 777.66053 425.753545 
L 784.808887 426.212101 
L 791.957244 426.66163 
L 799.105601 427.10239 
L 806.253958 427.534631 
L 813.402315 427.958593 
L 820.550672 428.374506 
L 827.699029 428.782593 
L 834.847386 429.183068 
L 841.995743 429.576138 
L 849.1441 429.962002 
L 856.292457 430.340851 
L 863.440814 430.712871 
L 870.589171 431.07824 
L 877.737528 431.437132 
L 884.885885 431.789713 
L 892.034242 432.136145 
L 899.182599 432.476581 
L 906.330956 432.811174 
L 913.479313 433.140068 
L 920.62767 433.463404 
L 927.776027 433.781318 
L 934.924384 434.093942 
L 942.072741 434.401403 
L 949.221098 434.703825 
L 956.369455 435.001327 
" clip-path="url(#p030a98003f)" style="fill: none; stroke: #d62728; stroke-width: 1.5; stroke-linecap: square"/>
   </g>
   <g id="line2d_19">
    <path d="M 177.198545 136.44709 
L 184.346902 161.931226 
L 191.495259 183.644545 
L 198.643616 202.384383 
L 205.791973 218.735222 
L 212.94033 233.135847 
L 220.088687 245.922441 
L 227.237044 257.357164 
L 234.385401 267.647625 
L 241.533758 276.960484 
L 248.682115 285.431149 
L 255.830472 293.170839 
L 262.978829 300.271788 
L 270.127186 306.811166 
L 277.275543 312.854058 
L 284.4239 318.455756 
L 291.572257 323.663548 
L 298.720614 328.518128 
L 305.868971 333.054713 
L 313.017328 337.303945 
L 320.165685 341.29261 
L 327.314042 345.044234 
L 334.462399 348.579569 
L 341.610756 351.916989 
L 348.759113 355.072826 
L 355.90747 358.061648 
L 363.055827 360.896492 
L 370.204183 363.589059 
L 377.35254 366.149886 
L 384.500897 368.588486 
L 391.649254 370.91347 
L 398.797611 373.132652 
L 405.945968 375.253142 
L 413.094325 377.281419 
L 420.242682 379.223407 
L 427.391039 381.084525 
L 434.539396 382.869749 
L 441.687753 384.583649 
L 448.83611 386.230435 
L 455.984467 387.813988 
L 463.132824 389.337895 
L 470.281181 390.805475 
L 477.429538 392.219803 
L 484.577895 393.583733 
L 491.726252 394.899919 
L 498.874609 396.170829 
L 506.022966 397.398763 
L 513.171323 398.585869 
L 520.31968 399.734151 
L 527.468037 400.845484 
L 534.616394 401.921625 
L 541.764751 402.964219 
L 548.913108 403.974811 
L 556.061465 404.954851 
L 563.209822 405.905703 
L 570.358178 406.828651 
L 577.506535 407.724903 
L 584.654892 408.5956 
L 591.803249 409.441817 
L 598.951606 410.264571 
L 606.099963 411.06482 
L 613.24832 411.843475 
L 620.396677 412.601395 
L 627.545034 413.339394 
L 634.693391 414.058246 
L 641.841748 414.758683 
L 648.990105 415.441401 
L 656.138462 416.107062 
L 663.286819 416.756294 
L 670.435176 417.389695 
L 677.583533 418.007834 
L 684.73189 418.611254 
L 691.880247 419.200472 
L 699.028604 419.77598 
L 706.176961 420.338249 
L 713.325318 420.887728 
L 720.473675 421.424845 
L 727.622032 421.95001 
L 734.770389 422.463616 
L 741.918746 422.966037 
L 749.067103 423.457632 
L 756.21546 423.938746 
L 763.363817 424.409706 
L 770.512173 424.870829 
L 777.66053 425.322417 
L 784.808887 425.764761 
L 791.957244 426.19814 
L 799.105601 426.62282 
L 806.253958 427.03906 
L 813.402315 427.447105 
L 820.550672 427.847194 
L 827.699029 428.239555 
L 834.847386 428.624407 
L 841.995743 429.001962 
L 849.1441 429.372424 
L 856.292457 429.735988 
L 863.440814 430.092844 
L 870.589171 430.443174 
L 877.737528 430.787153 
L 884.885885 431.12495 
L 892.034242 431.456729 
L 899.182599 431.782648 
L 906.330956 432.102858 
L 913.479313 432.417508 
L 920.62767 432.726738 
L 927.776027 433.030686 
L 934.924384 433.329484 
L 942.072741 433.623261 
L 949.221098 433.912141 
L 956.369455 434.196244 
" clip-path="url(#p030a98003f)" style="fill: none; stroke: #9467bd; stroke-width: 1.5; stroke-linecap: square"/>
   </g>
   <g id="line2d_20">
    <path d="M 177.198545 84.19104 
L 184.346902 118.852558 
L 191.495259 147.737157 
L 198.643616 172.177971 
L 205.791973 193.127241 
L 212.94033 211.283274 
L 220.088687 227.169803 
L 227.237044 241.187329 
L 234.385401 253.647352 
L 241.533758 264.795794 
L 248.682115 274.829391 
L 255.830472 283.907408 
L 262.978829 292.16015 
L 270.127186 299.695263 
L 277.275543 306.602449 
L 284.4239 312.957061 
L 291.572257 318.822857 
L 298.720614 324.254149 
L 305.868971 329.297491 
L 313.017328 333.993017 
L 320.165685 338.375508 
L 327.314042 342.475257 
L 334.462399 346.318773 
L 341.610756 349.929347 
L 348.759113 353.327535 
L 355.90747 356.531541 
L 363.055827 359.557547 
L 370.204183 362.419985 
L 377.35254 365.131768 
L 384.500897 367.704485 
L 391.649254 370.148566 
L 398.797611 372.473424 
L 405.945968 374.687575 
L 413.094325 376.798741 
L 420.242682 378.813946 
L 427.391039 380.739586 
L 434.539396 382.581502 
L 441.687753 384.345039 
L 448.83611 386.035096 
L 455.984467 387.65617 
L 463.132824 389.212402 
L 470.281181 390.707604 
L 477.429538 392.145299 
L 484.577895 393.528742 
L 491.726252 394.860945 
L 498.874609 396.144705 
L 506.022966 397.382617 
L 513.171323 398.577092 
L 520.31968 399.73038 
L 527.468037 400.844572 
L 534.616394 401.921625 
L 541.764751 402.963365 
L 548.913108 403.9715 
L 556.061465 404.947631 
L 563.209822 405.893257 
L 570.358178 406.809788 
L 577.506535 407.698545 
L 584.654892 408.560772 
L 591.803249 409.397639 
L 598.951606 410.210249 
L 606.099963 410.999642 
L 613.24832 411.766798 
L 620.396677 412.512644 
L 627.545034 413.238057 
L 634.693391 413.943863 
L 641.841748 414.630848 
L 648.990105 415.299755 
L 656.138462 415.951287 
L 663.286819 416.586113 
L 670.435176 417.204868 
L 677.583533 417.808154 
L 684.73189 418.396544 
L 691.880247 418.970583 
L 699.028604 419.53079 
L 706.176961 420.077658 
L 713.325318 420.611659 
L 720.473675 421.133242 
L 727.622032 421.642834 
L 734.770389 422.140844 
L 741.918746 422.627663 
L 749.067103 423.103664 
L 756.21546 423.569203 
L 763.363817 424.024622 
L 770.512173 424.470247 
L 777.66053 424.906391 
L 784.808887 425.333352 
L 791.957244 425.751419 
L 799.105601 426.160865 
L 806.253958 426.561956 
L 813.402315 426.954944 
L 820.550672 427.340072 
L 827.699029 427.717573 
L 834.847386 428.087673 
L 841.995743 428.450586 
L 849.1441 428.806521 
L 856.292457 429.155675 
L 863.440814 429.498242 
L 870.589171 429.834405 
L 877.737528 430.164344 
L 884.885885 430.488228 
L 892.034242 430.806224 
L 899.182599 431.11849 
L 906.330956 431.425179 
L 913.479313 431.726441 
L 920.62767 432.022417 
L 927.776027 432.313246 
L 934.924384 432.599061 
L 942.072741 432.87999 
L 949.221098 433.156157 
L 956.369455 433.427683 
" clip-path="url(#p030a98003f)" style="fill: none; stroke: #000000; stroke-width: 1.5; stroke-linecap: square"/>
   </g>
   <g id="patch_3">
    <path d="M 138.24 483.41952 
L 138.24 65.18016 
" style="fill: none; stroke: #000000; stroke-width: 0.8; stroke-linejoin: miter; stroke-linecap: square"/>
   </g>
   <g id="patch_4">
    <path d="M 995.328 483.41952 
L 995.328 65.18016 
" style="fill: none; stroke: #000000; stroke-width: 0.8; stroke-linejoin: miter; stroke-linecap: square"/>
   </g>
   <g id="patch_5">
    <path d="M 138.24 483.41952 
L 995.328 483.41952 
" style="fill: none; stroke: #000000; stroke-width: 0.8; stroke-linejoin: miter; stroke-linecap: square"/>
   </g>
   <g id="patch_6">
    <path d="M 138.24 65.18016 
L 995.328 65.18016 
" style="fill: none; stroke: #000000; stroke-width: 0.8; stroke-linejoin: miter; stroke-linecap: square"/>
   </g>
   <g id="legend_1">
    <g id="patch_7">
     <path d="M 886.301438 146.652035 
L 988.328 146.652035 
Q 990.328 146.652035 990.328 144.652035 
L 990.328 72.18016 
Q 990.328 70.18016 988.328 70.18016 
L 886.301438 70.18016 
Q 884.301438 70.18016 884.301438 72.18016 
L 884.301438 144.652035 
Q 884.301438 146.652035 886.301438 146.652035 
z
" style="fill: #ffffff; opacity: 0.8; stroke: #cccccc; stroke-linejoin: miter"/>
    </g>
    <g id="line2d_21">
     <path d="M 888.301438 78.278597 
L 898.301438 78.278597 
L 908.301438 78.278597 
" style="fill: none; stroke: #1f77b4; stroke-width: 1.5; stroke-linecap: square"/>
    </g>
    <g id="text_15">
     <!-- $\rho = 0.5$ -->
     <g transform="translate(916.301438 81.778597) scale(0.1 -0.1)">
      <defs>
       <path id="DejaVuSans-Oblique-3c1" d="M 1203 2875 
Q 1453 3194 1981 3475 
Q 2188 3584 2756 3584 
Q 3394 3584 3694 3078 
Q 3994 2572 3834 1747 
Q 3672 922 3175 415 
Q 2678 -91 2041 -91 
Q 1656 -91 1409 63 
Q 1163 213 1044 525 
L 681 -1331 
L 103 -1331 
L 697 1716 
Q 838 2438 1203 2875 
z
M 3238 1747 
Q 3359 2381 3169 2744 
Q 2978 3103 2522 3103 
Q 2066 3103 1734 2744 
Q 1403 2381 1281 1747 
Q 1156 1113 1347 750 
Q 1538 391 1994 391 
Q 2450 391 2781 750 
Q 3113 1113 3238 1747 
z
" transform="scale(0.015625)"/>
       <path id="DejaVuSans-3d" d="M 678 2906 
L 4684 2906 
L 4684 2381 
L 678 2381 
L 678 2906 
z
M 678 1631 
L 4684 1631 
L 4684 1100 
L 678 1100 
L 678 1631 
z
" transform="scale(0.015625)"/>
      </defs>
      <use xlink:href="#DejaVuSans-Oblique-3c1" transform="translate(0 0.78125)"/>
      <use xlink:href="#DejaVuSans-3d" transform="translate(82.958984 0.78125)"/>
      <use xlink:href="#DejaVuSans-30" transform="translate(186.230469 0.78125)"/>
      <use xlink:href="#DejaVuSans-2e" transform="translate(249.853516 0.78125)"/>
      <use xlink:href="#DejaVuSans-35" transform="translate(281.640625 0.78125)"/>
     </g>
    </g>
    <g id="line2d_22">
     <path d="M 888.301438 92.977035 
L 898.301438 92.977035 
L 908.301438 92.977035 
" style="fill: none; stroke: #ff7f0e; stroke-width: 1.5; stroke-linecap: square"/>
    </g>
    <g id="text_16">
     <!-- $\rho = 0.25$ -->
     <g transform="translate(916.301438 96.477035) scale(0.1 -0.1)">
      <use xlink:href="#DejaVuSans-Oblique-3c1" transform="translate(0 0.78125)"/>
      <use xlink:href="#DejaVuSans-3d" transform="translate(82.958984 0.78125)"/>
      <use xlink:href="#DejaVuSans-30" transform="translate(186.230469 0.78125)"/>
      <use xlink:href="#DejaVuSans-2e" transform="translate(249.853516 0.78125)"/>
      <use xlink:href="#DejaVuSans-32" transform="translate(276.140625 0.78125)"/>
      <use xlink:href="#DejaVuSans-35" transform="translate(339.763672 0.78125)"/>
     </g>
    </g>
    <g id="line2d_23">
     <path d="M 888.301438 107.675472 
L 898.301438 107.675472 
L 908.301438 107.675472 
" style="fill: none; stroke: #2ca02c; stroke-width: 1.5; stroke-linecap: square"/>
    </g>
    <g id="text_17">
     <!-- $\rho = 0.10$ -->
     <g transform="translate(916.301438 111.175472) scale(0.1 -0.1)">
      <use xlink:href="#DejaVuSans-Oblique-3c1" transform="translate(0 0.78125)"/>
      <use xlink:href="#DejaVuSans-3d" transform="translate(82.958984 0.78125)"/>
      <use xlink:href="#DejaVuSans-30" transform="translate(186.230469 0.78125)"/>
      <use xlink:href="#DejaVuSans-2e" transform="translate(249.853516 0.78125)"/>
      <use xlink:href="#DejaVuSans-31" transform="translate(281.640625 0.78125)"/>
      <use xlink:href="#DejaVuSans-30" transform="translate(345.263672 0.78125)"/>
     </g>
    </g>
    <g id="line2d_24">
     <path d="M 888.301438 122.37391 
L 898.301438 122.37391 
L 908.301438 122.37391 
" style="fill: none; stroke: #d62728; stroke-width: 1.5; stroke-linecap: square"/>
    </g>
    <g id="text_18">
     <!-- $\rho = 0.05$ -->
     <g transform="translate(916.301438 125.87391) scale(0.1 -0.1)">
      <use xlink:href="#DejaVuSans-Oblique-3c1" transform="translate(0 0.78125)"/>
      <use xlink:href="#DejaVuSans-3d" transform="translate(82.958984 0.78125)"/>
      <use xlink:href="#DejaVuSans-30" transform="translate(186.230469 0.78125)"/>
      <use xlink:href="#DejaVuSans-2e" transform="translate(249.853516 0.78125)"/>
      <use xlink:href="#DejaVuSans-30" transform="translate(281.640625 0.78125)"/>
      <use xlink:href="#DejaVuSans-35" transform="translate(345.263672 0.78125)"/>
     </g>
    </g>
    <g id="line2d_25">
     <path d="M 888.301438 137.072347 
L 898.301438 137.072347 
L 908.301438 137.072347 
" style="fill: none; stroke: #9467bd; stroke-width: 1.5; stroke-linecap: square"/>
    </g>
    <g id="text_19">
     <!-- Cobb-Douglas -->
     <g transform="translate(916.301438 140.572347) scale(0.1 -0.1)">
      <defs>
       <path id="DejaVuSans-43" d="M 4122 4306 
L 4122 3641 
Q 3803 3938 3442 4084 
Q 3081 4231 2675 4231 
Q 1875 4231 1450 3742 
Q 1025 3253 1025 2328 
Q 1025 1406 1450 917 
Q 1875 428 2675 428 
Q 3081 428 3442 575 
Q 3803 722 4122 1019 
L 4122 359 
Q 3791 134 3420 21 
Q 3050 -91 2638 -91 
Q 1578 -91 968 557 
Q 359 1206 359 2328 
Q 359 3453 968 4101 
Q 1578 4750 2638 4750 
Q 3056 4750 3426 4639 
Q 3797 4528 4122 4306 
z
" transform="scale(0.015625)"/>
       <path id="DejaVuSans-6f" d="M 1959 3097 
Q 1497 3097 1228 2736 
Q 959 2375 959 1747 
Q 959 1119 1226 758 
Q 1494 397 1959 397 
Q 2419 397 2687 759 
Q 2956 1122 2956 1747 
Q 2956 2369 2687 2733 
Q 2419 3097 1959 3097 
z
M 1959 3584 
Q 2709 3584 3137 3096 
Q 3566 2609 3566 1747 
Q 3566 888 3137 398 
Q 2709 -91 1959 -91 
Q 1206 -91 779 398 
Q 353 888 353 1747 
Q 353 2609 779 3096 
Q 1206 3584 1959 3584 
z
" transform="scale(0.015625)"/>
       <path id="DejaVuSans-62" d="M 3116 1747 
Q 3116 2381 2855 2742 
Q 2594 3103 2138 3103 
Q 1681 3103 1420 2742 
Q 1159 2381 1159 1747 
Q 1159 1113 1420 752 
Q 1681 391 2138 391 
Q 2594 391 2855 752 
Q 3116 1113 3116 1747 
z
M 1159 2969 
Q 1341 3281 1617 3432 
Q 1894 3584 2278 3584 
Q 2916 3584 3314 3078 
Q 3713 2572 3713 1747 
Q 3713 922 3314 415 
Q 2916 -91 2278 -91 
Q 1894 -91 1617 61 
Q 1341 213 1159 525 
L 1159 0 
L 581 0 
L 581 4863 
L 1159 4863 
L 1159 2969 
z
" transform="scale(0.015625)"/>
       <path id="DejaVuSans-2d" d="M 313 2009 
L 1997 2009 
L 1997 1497 
L 313 1497 
L 313 2009 
z
" transform="scale(0.015625)"/>
       <path id="DejaVuSans-44" d="M 1259 4147 
L 1259 519 
L 2022 519 
Q 2988 519 3436 956 
Q 3884 1394 3884 2338 
Q 3884 3275 3436 3711 
Q 2988 4147 2022 4147 
L 1259 4147 
z
M 628 4666 
L 1925 4666 
Q 3281 4666 3915 4102 
Q 4550 3538 4550 2338 
Q 4550 1131 3912 565 
Q 3275 0 1925 0 
L 628 0 
L 628 4666 
z
" transform="scale(0.015625)"/>
       <path id="DejaVuSans-75" d="M 544 1381 
L 544 3500 
L 1119 3500 
L 1119 1403 
Q 1119 906 1312 657 
Q 1506 409 1894 409 
Q 2359 409 2629 706 
Q 2900 1003 2900 1516 
L 2900 3500 
L 3475 3500 
L 3475 0 
L 2900 0 
L 2900 538 
Q 2691 219 2414 64 
Q 2138 -91 1772 -91 
Q 1169 -91 856 284 
Q 544 659 544 1381 
z
M 1991 3584 
L 1991 3584 
z
" transform="scale(0.015625)"/>
       <path id="DejaVuSans-67" d="M 2906 1791 
Q 2906 2416 2648 2759 
Q 2391 3103 1925 3103 
Q 1463 3103 1205 2759 
Q 947 2416 947 1791 
Q 947 1169 1205 825 
Q 1463 481 1925 481 
Q 2391 481 2648 825 
Q 2906 1169 2906 1791 
z
M 3481 434 
Q 3481 -459 3084 -895 
Q 2688 -1331 1869 -1331 
Q 1566 -1331 1297 -1286 
Q 1028 -1241 775 -1147 
L 775 -588 
Q 1028 -725 1275 -790 
Q 1522 -856 1778 -856 
Q 2344 -856 2625 -561 
Q 2906 -266 2906 331 
L 2906 616 
Q 2728 306 2450 153 
Q 2172 0 1784 0 
Q 1141 0 747 490 
Q 353 981 353 1791 
Q 353 2603 747 3093 
Q 1141 3584 1784 3584 
Q 2172 3584 2450 3431 
Q 2728 3278 2906 2969 
L 2906 3500 
L 3481 3500 
L 3481 434 
z
" transform="scale(0.015625)"/>
       <path id="DejaVuSans-6c" d="M 603 4863 
L 1178 4863 
L 1178 0 
L 603 0 
L 603 4863 
z
" transform="scale(0.015625)"/>
       <path id="DejaVuSans-61" d="M 2194 1759 
Q 1497 1759 1228 1600 
Q 959 1441 959 1056 
Q 959 750 1161 570 
Q 1363 391 1709 391 
Q 2188 391 2477 730 
Q 2766 1069 2766 1631 
L 2766 1759 
L 2194 1759 
z
M 3341 1997 
L 3341 0 
L 2766 0 
L 2766 531 
Q 2569 213 2275 61 
Q 1981 -91 1556 -91 
Q 1019 -91 701 211 
Q 384 513 384 1019 
Q 384 1609 779 1909 
Q 1175 2209 1959 2209 
L 2766 2209 
L 2766 2266 
Q 2766 2663 2505 2880 
Q 2244 3097 1772 3097 
Q 1472 3097 1187 3025 
Q 903 2953 641 2809 
L 641 3341 
Q 956 3463 1253 3523 
Q 1550 3584 1831 3584 
Q 2591 3584 2966 3190 
Q 3341 2797 3341 1997 
z
" transform="scale(0.015625)"/>
       <path id="DejaVuSans-73" d="M 2834 3397 
L 2834 2853 
Q 2591 2978 2328 3040 
Q 2066 3103 1784 3103 
Q 1356 3103 1142 2972 
Q 928 2841 928 2578 
Q 928 2378 1081 2264 
Q 1234 2150 1697 2047 
L 1894 2003 
Q 2506 1872 2764 1633 
Q 3022 1394 3022 966 
Q 3022 478 2636 193 
Q 2250 -91 1575 -91 
Q 1294 -91 989 -36 
Q 684 19 347 128 
L 347 722 
Q 666 556 975 473 
Q 1284 391 1588 391 
Q 1994 391 2212 530 
Q 2431 669 2431 922 
Q 2431 1156 2273 1281 
Q 2116 1406 1581 1522 
L 1381 1569 
Q 847 1681 609 1914 
Q 372 2147 372 2553 
Q 372 3047 722 3315 
Q 1072 3584 1716 3584 
Q 2034 3584 2315 3537 
Q 2597 3491 2834 3397 
z
" transform="scale(0.015625)"/>
      </defs>
      <use xlink:href="#DejaVuSans-43"/>
      <use xlink:href="#DejaVuSans-6f" transform="translate(69.824219 0)"/>
      <use xlink:href="#DejaVuSans-62" transform="translate(131.005859 0)"/>
      <use xlink:href="#DejaVuSans-62" transform="translate(194.482422 0)"/>
      <use xlink:href="#DejaVuSans-2d" transform="translate(257.958984 0)"/>
      <use xlink:href="#DejaVuSans-44" transform="translate(294.042969 0)"/>
      <use xlink:href="#DejaVuSans-6f" transform="translate(371.044922 0)"/>
      <use xlink:href="#DejaVuSans-75" transform="translate(432.226562 0)"/>
      <use xlink:href="#DejaVuSans-67" transform="translate(495.605469 0)"/>
      <use xlink:href="#DejaVuSans-6c" transform="translate(559.082031 0)"/>
      <use xlink:href="#DejaVuSans-61" transform="translate(586.865234 0)"/>
      <use xlink:href="#DejaVuSans-73" transform="translate(648.144531 0)"/>
     </g>
    </g>
   </g>
  </g>
 </g>
 <defs>
  <clipPath id="p030a98003f">
   <rect x="138.24" y="65.18016" width="857.088" height="418.23936"/>
  </clipPath>
 </defs>
</svg>
